<?xml version="1.0" encoding="utf-8"?>
<!-- Generator: Adobe Illustrator 16.0.4, SVG Export Plug-In . SVG Version: 6.00 Build 0)  -->
<!DOCTYPE svg PUBLIC "-//W3C//DTD SVG 1.1//EN" "http://www.w3.org/Graphics/SVG/1.1/DTD/svg11.dtd">
<svg version="1.1" id="Layer_1" xmlns="http://www.w3.org/2000/svg" xmlns:xlink="http://www.w3.org/1999/xlink" x="0px" y="0px"
	 width="88px" height="22px" viewBox="0 0 88 22" enable-background="new 0 0 88 22" xml:space="preserve">
<g>
	<path fill="#FFFFFF" d="M14.225,11.631c-0.027-1.709,0.7-3.039,2.18-3.99c-0.834-1.232-2.065-1.925-3.693-2.079
		c-0.579-0.056-1.319,0.083-2.22,0.42C9.522,6.346,8.977,6.527,8.856,6.527c-0.256,0-0.747-0.153-1.474-0.462
		C6.656,5.758,6.037,5.604,5.525,5.604C4.664,5.617,3.863,5.859,3.124,6.328C2.383,6.797,1.792,7.438,1.348,8.25
		C0.782,9.258,0.5,10.463,0.5,11.861c0,1.26,0.208,2.52,0.625,3.781c0.39,1.204,0.888,2.262,1.493,3.17
		c0.538,0.827,1.01,1.429,1.413,1.808c0.579,0.587,1.17,0.868,1.777,0.839c0.39-0.014,0.9-0.16,1.533-0.441
		c0.592-0.266,1.184-0.397,1.776-0.397c0.552,0,1.124,0.132,1.716,0.397c0.659,0.281,1.198,0.42,1.614,0.42
		c0.619-0.027,1.198-0.301,1.736-0.817c0.188-0.169,0.394-0.4,0.615-0.694c0.222-0.293,0.467-0.644,0.737-1.05
		c0.188-0.294,0.373-0.608,0.555-0.944c0.182-0.337,0.346-0.693,0.495-1.072c0.067-0.154,0.127-0.311,0.181-0.472
		s0.108-0.325,0.162-0.493c-0.498-0.224-0.949-0.539-1.352-0.945C14.689,14.053,14.238,12.947,14.225,11.631z"/>
	<polygon fill="#FFFFFF" points="28.86,15.375 28.762,15.375 24.664,5.867 21.445,5.867 21.445,21.207 24.25,21.207 24.25,11.272 
		24.38,11.272 27.806,19.162 29.773,19.162 33.188,11.272 33.318,11.272 33.318,21.207 36.156,21.207 36.156,5.867 32.959,5.867 	
		"/>
	<path fill="#FFFFFF" d="M11.681,3.86c0.714-0.909,1.07-1.89,1.07-2.94c0-0.07,0-0.141,0-0.21s-0.007-0.14-0.02-0.21
		c-0.499,0.028-1.026,0.189-1.585,0.482c-0.558,0.295-1.019,0.666-1.382,1.113c-0.727,0.883-1.09,1.828-1.09,2.836
		c0,0.07,0,0.137,0,0.199c0,0.063,0.007,0.13,0.02,0.199C9.811,5.443,10.807,4.952,11.681,3.86z"/>
	<rect x="68.942" y="5.867" fill="#FFFFFF" width="3.153" height="15.34"/>
	<path fill="#FFFFFF" d="M81.618,8.306c1.87,0,2.859,1.462,2.859,3.034H87.5v-0.326c0-2.966-2.229-5.438-5.904-5.438
		c-3.937,0-6.285,2.63-6.285,7.114v1.73c0,4.483,2.327,7.08,6.274,7.08c3.773,0,5.915-2.506,5.915-5.293v-0.338h-3.023
		c0,1.585-0.968,2.899-2.837,2.899c-1.914,0-3.132-1.382-3.132-4.339V12.7C78.508,9.756,79.737,8.306,81.618,8.306z"/>
	<path fill="#FFFFFF" d="M48.215,15.555c0,2.057-1.185,3.191-2.925,3.191c-1.75,0-2.936-1.124-2.936-3.191V5.867h-3.131v10.137
		c0,3.271,2.283,5.496,6.067,5.496c3.773,0,6.067-2.225,6.067-5.496V5.867h-3.142V15.555z"/>
	<path fill="#FFFFFF" d="M61.789,12.273l-2.25-0.518c-1.326-0.281-2.022-0.877-2.022-1.765c0-1.179,0.946-1.921,2.469-1.921
		c1.717,0,2.576,1,2.652,2.079h2.936c-0.033-2.709-2.262-4.597-5.578-4.597c-3.142,0-5.621,1.675-5.621,4.686
		c0,2.607,1.739,3.821,3.827,4.283l2.229,0.527c1.5,0.349,2.261,0.855,2.261,1.898c0,1.192-0.935,2.002-2.685,2.002
		c-1.881,0-2.871-1.012-2.958-2.147h-3.023c0.044,2.169,1.458,4.698,5.829,4.698c3.675,0,5.947-1.854,5.947-4.867
		C65.801,13.846,63.963,12.756,61.789,12.273z"/>
</g>
</svg>
